<?xml version="1.0" encoding="utf-8"?>
<!-- Generator: Adobe Illustrator 23.0.1, SVG Export Plug-In . SVG Version: 6.00 Build 0)  -->
<svg version="1.1" id="Capa_1" xmlns="http://www.w3.org/2000/svg" xmlns:xlink="http://www.w3.org/1999/xlink" x="0px" y="0px"
	 viewBox="0 0 512 512" style="enable-background:new 0 0 512 512;" xml:space="preserve">
<style type="text/css">
	.st0{fill:#00AB84;}
</style>
<g>
	<g>
		<path class="st0" d="M256,512c141.2,0,256-114.8,256-256S397.1,0,256,0S0,114.8,0,256S114.8,512,256,512z M256,25.6
			C383,25.6,486.4,128.9,486.4,256S383,486.4,256,486.4S25.5,383.1,25.5,256S128.9,25.6,256,25.6z"/>
		<g>
			<g>
				<path class="st0" d="M358.4,167.4c-4.8-4.8-12.6-4.8-17.5,0L202.4,305.9L171,274.5c-4.8-4.8-12.6-4.8-17.5,0
					c-4.8,4.8-4.8,12.6,0,17.5l40.2,40.2c2.4,2.4,5.6,3.6,8.7,3.6c3.2,0,6.3-1.2,8.7-3.6l147.3-147.3
					C363.2,180,363.2,172.2,358.4,167.4z"/>
			</g>
		</g>
	</g>
</g>
</svg>
