<?xml version="1.0" encoding="utf-8"?>
<!-- Generator: Adobe Illustrator 23.0.1, SVG Export Plug-In . SVG Version: 6.00 Build 0)  -->
<svg version="1.1" id="Layer_1" xmlns="http://www.w3.org/2000/svg" xmlns:xlink="http://www.w3.org/1999/xlink" x="0px" y="0px"
	 viewBox="0 0 512 512" style="enable-background:new 0 0 512 512;" xml:space="preserve">
<style type="text/css">
	.st0{fill:#00B4D2;}
</style>
<path class="st0" d="M266,512h-20c-33.1,0-60-26.9-60-60v-10.1c0-2.6-1.7-5.1-4.3-6.1l-0.4-0.2c-2.6-1.1-5.5-0.6-7.4,1.3l-7.1,7.1
	c-11.3,11.3-26.4,17.6-42.4,17.6c-16,0-31.1-6.2-42.4-17.6l-14.1-14.1c-11.3-11.3-17.6-26.4-17.6-42.4s6.2-31.1,17.6-42.4L75,338
	c1.9-1.9,2.4-4.8,1.3-7.4l-0.2-0.4c-1.1-2.6-3.5-4.3-6.1-4.3H60c-33.1,0-60-26.9-60-60v-20c0-33.1,26.9-60,60-60h10.1
	c2.6,0,5.1-1.7,6.1-4.3l0.2-0.4c1.1-2.6,0.6-5.5-1.3-7.4l-7.1-7.1c-11.3-11.3-17.6-26.4-17.6-42.4s6.2-31.1,17.6-42.4l14.1-14.1
	c11.3-11.3,26.4-17.6,42.4-17.6s31.1,6.2,42.4,17.6L174,75c1.9,1.9,4.8,2.4,7.4,1.3l0.4-0.2c2.6-1.1,4.3-3.5,4.3-6.1V60
	c0-33.1,26.9-60,60-60h20c33.1,0,60,26.9,60,60v10.1c0,2.6,1.7,5.1,4.3,6.1l0.4,0.2c2.6,1.1,5.5,0.6,7.4-1.3l7.1-7.1
	c11.3-11.3,26.4-17.6,42.4-17.6s31.1,6.2,42.4,17.6l14.1,14.1c11.3,11.3,17.6,26.4,17.6,42.4s-6.2,31.1-17.6,42.4L437,174
	c-1.9,1.9-2.4,4.8-1.3,7.4l0.2,0.4c1.1,2.6,3.5,4.3,6.1,4.3H452c33.1,0,60,26.9,60,60v20c0,33.1-26.9,60-60,60h-10.1
	c-2.6,0-5.1,1.7-6.1,4.3l-0.2,0.4c-1.1,2.6-0.6,5.5,1.3,7.4c7.8,7.8,7.8,20.5,0,28.3c-7.8,7.8-20.5,7.8-28.3,0
	c-13.4-13.4-17.3-33.4-10-51l0.1-0.3c7.3-17.6,24.2-29,43.1-29H452c11,0,20-9,20-20v-20c0-11-9-20-20-20h-10.1
	c-18.9,0-35.8-11.4-43.1-29l-0.2-0.4c-7.3-17.5-3.4-37.5,10-50.9l7.1-7.1c3.8-3.8,5.9-8.8,5.9-14.1c0-5.3-2.1-10.4-5.9-14.1
	l-14.1-14.1c-3.8-3.8-8.8-5.9-14.1-5.9c-5.3,0-10.4,2.1-14.1,5.9l-7.1,7.1c-13.4,13.4-33.4,17.3-51,10l-0.3-0.1
	c-17.6-7.3-29-24.2-29-43.1V60c0-11-9-20-20-20h-20c-11,0-20,9-20,20v10.1c0,18.9-11.4,35.8-29,43.1l-0.3,0.1
	c-17.6,7.3-37.6,3.4-51-10l-7.1-7.1c-3.8-3.8-8.8-5.9-14.1-5.9c-5.3,0-10.4,2.1-14.1,5.9l-14.1,14.1c-3.8,3.8-5.9,8.8-5.9,14.1
	c0,5.3,2.1,10.4,5.9,14.1l7.1,7.1c13.4,13.4,17.3,33.4,10,51l-0.1,0.3c-7.3,17.6-24.2,29-43.1,29H60c-11,0-20,9-20,20v20
	c0,11,9,20,20,20h10.1c18.9,0,35.8,11.4,43.1,29l0.1,0.3c7.3,17.6,3.4,37.6-10,51l-7.1,7.1c-3.8,3.8-5.9,8.8-5.9,14.1
	c0,5.3,2.1,10.4,5.9,14.1l14.1,14.1c3.8,3.8,8.8,5.9,14.1,5.9c5.3,0,10.4-2.1,14.1-5.9l7.1-7.1c13.4-13.4,33.4-17.3,51-10l0.3,0.1
	c17.6,7.3,29,24.2,29,43.1V452c0,11,9,20,20,20h20c11,0,20-9,20-20v-10.1c0-18.9,11.4-35.8,29-43.1l0.3-0.1c17.6-7.3,37.6-3.4,51,10
	l7.1,7.1c3.8,3.8,8.8,5.9,14.1,5.9c5.3,0,10.4-2.1,14.1-5.9c7.8-7.8,20.5-7.8,28.3,0c7.8,7.8,7.8,20.5,0,28.3
	c-11.3,11.3-26.4,17.6-42.4,17.6s-31.1-6.2-42.4-17.6L338,437c-1.9-1.9-4.8-2.4-7.4-1.3l-0.4,0.2c-2.6,1.1-4.3,3.5-4.3,6.1V452
	C326,485.1,299.1,512,266,512z M235.9,345.9c14.3-1,27.7-7.9,36.7-19.1c0.3-0.3,0.5-0.6,0.7-1l83-117.2c6.4-9,4.3-21.5-4.8-27.9
	s-21.5-4.2-27.9,4.8l-82.5,116.6c-2.7,3.1-6,3.8-7.8,3.9c-1.9,0.1-5.5-0.1-8.6-3.1c-0.1-0.1-0.2-0.2-0.3-0.3l-52.9-48.3
	c-8.2-7.4-20.8-6.9-28.3,1.3s-6.9,20.8,1.3,28.3l52.7,48.2c9.5,9,22.3,14,35.3,14C233.7,346,234.8,346,235.9,345.9z"/>
</svg>
